<svg width="74" height="75" viewBox="0 0 74 75" fill="none" xmlns="http://www.w3.org/2000/svg">
<path d="M65.7874 9.9458C70.1195 12.5761 73.0129 17.3395 73.0129 22.7778V59.7778C73.0128 68.062 66.2971 74.7778 58.0129 74.7778H21.0129C14.8283 74.7777 9.51834 71.0343 7.22388 65.6899C9.49129 67.0671 12.1526 67.8608 14.9993 67.8608H51.9993C60.2834 67.8608 66.999 61.1449 66.9993 52.8608V15.8608C66.9993 13.7604 66.5669 11.7607 65.7874 9.9458Z" fill="#6A6A6A"/>
<mask id="path-2-inside-1_1223_1713" fill="white">
<path d="M53 0C61.2843 0 68 6.71573 68 15V53C68 61.2843 61.2843 68 53 68H15C6.71573 68 6.44299e-08 61.2843 0 53V15C0 6.71573 6.71573 6.44257e-08 15 0H53ZM34 11.5117C32.5195 11.5118 31.3193 12.7119 31.3193 14.1924V31.3193H14.1924C12.712 31.3194 11.5119 32.5196 11.5117 34C11.512 35.4803 12.712 36.6816 14.1924 36.6816H31.3193V53.8086C31.3196 55.2889 32.5197 56.4892 34 56.4893C35.4804 56.4893 36.6804 55.2889 36.6807 53.8086V36.6816H53.8076C55.288 36.6816 56.488 35.4803 56.4883 34C56.4881 32.5196 55.2881 31.3193 53.8076 31.3193H36.6807V14.1924C36.6807 12.7119 35.4805 11.5117 34 11.5117Z"/>
</mask>
<path d="M53 0C61.2843 0 68 6.71573 68 15V53C68 61.2843 61.2843 68 53 68H15C6.71573 68 6.44299e-08 61.2843 0 53V15C0 6.71573 6.71573 6.44257e-08 15 0H53ZM34 11.5117C32.5195 11.5118 31.3193 12.7119 31.3193 14.1924V31.3193H14.1924C12.712 31.3194 11.5119 32.5196 11.5117 34C11.512 35.4803 12.712 36.6816 14.1924 36.6816H31.3193V53.8086C31.3196 55.2889 32.5197 56.4892 34 56.4893C35.4804 56.4893 36.6804 55.2889 36.6807 53.8086V36.6816H53.8076C55.288 36.6816 56.488 35.4803 56.4883 34C56.4881 32.5196 55.2881 31.3193 53.8076 31.3193H36.6807V14.1924C36.6807 12.7119 35.4805 11.5117 34 11.5117Z" fill="#939292"/>
<path d="M68 15H69H68ZM53 68V69V68ZM0 53H-1H0ZM15 0V-1V0ZM34 11.5117V10.5117H34L34 11.5117ZM31.3193 31.3193V32.3193H32.3193V31.3193H31.3193ZM14.1924 31.3193V30.3193H14.1924L14.1924 31.3193ZM11.5117 34L10.5117 33.9999V34.0002L11.5117 34ZM14.1924 36.6816L14.1924 37.6816H14.1924V36.6816ZM31.3193 36.6816H32.3193V35.6816H31.3193V36.6816ZM31.3193 53.8086H30.3193V53.8088L31.3193 53.8086ZM34 56.4893L34 57.4893H34V56.4893ZM36.6807 53.8086L37.6807 53.8088V53.8086H36.6807ZM36.6807 36.6816V35.6816H35.6807V36.6816H36.6807ZM56.4883 34L57.4883 34.0002V33.9999L56.4883 34ZM36.6807 31.3193H35.6807V32.3193H36.6807V31.3193ZM53 0V1C60.732 1 67 7.26801 67 15H68H69C69 6.16344 61.8366 -1 53 -1V0ZM68 15H67V53H68H69V15H68ZM68 53H67C67 60.732 60.732 67 53 67V68V69C61.8366 69 69 61.8366 69 53H68ZM53 68V67H15V68V69H53V68ZM15 68V67C7.26801 67 1 60.732 1 53H0H-1C-1 61.8366 6.16344 69 15 69V68ZM0 53H1V15H0H-1V53H0ZM0 15H1C1 7.26801 7.26801 1 15 1V0V-1C6.16344 -1 -1 6.16344 -1 15H0ZM15 0V1H53V0V-1H15V0ZM34 11.5117L34 10.5117C31.9673 10.5118 30.3193 12.1596 30.3193 14.1924H31.3193H32.3193C32.3193 13.2642 33.0718 12.5117 34 12.5117L34 11.5117ZM31.3193 14.1924H30.3193V31.3193H31.3193H32.3193V14.1924H31.3193ZM31.3193 31.3193V30.3193H14.1924V31.3193V32.3193H31.3193V31.3193ZM14.1924 31.3193L14.1924 30.3193C12.1596 30.3194 10.512 31.9674 10.5117 33.9999L11.5117 34L12.5117 34.0001C12.5118 33.0718 13.2644 32.3194 14.1924 32.3193L14.1924 31.3193ZM11.5117 34L10.5117 34.0002C10.5121 36.032 12.1591 37.6816 14.1924 37.6816L14.1924 36.6816L14.1924 35.6816C13.2649 35.6816 12.5119 34.9286 12.5117 33.9998L11.5117 34ZM14.1924 36.6816V37.6816H31.3193V36.6816V35.6816H14.1924V36.6816ZM31.3193 36.6816H30.3193V53.8086H31.3193H32.3193V36.6816H31.3193ZM31.3193 53.8086L30.3193 53.8088C30.3197 55.841 31.9672 57.4892 34 57.4893L34 56.4893L34 55.4893C33.0721 55.4892 32.3195 54.7367 32.3193 53.8084L31.3193 53.8086ZM34 56.4893V57.4893C36.0328 57.4893 37.6803 55.841 37.6807 53.8088L36.6807 53.8086L35.6807 53.8084C35.6805 54.7367 34.9279 55.4893 34 55.4893V56.4893ZM36.6807 53.8086H37.6807V36.6816H36.6807H35.6807V53.8086H36.6807ZM36.6807 36.6816V37.6816H53.8076V36.6816V35.6816H36.6807V36.6816ZM53.8076 36.6816V37.6816C55.8409 37.6816 57.4879 36.032 57.4883 34.0002L56.4883 34L55.4883 33.9998C55.4881 34.9287 54.7351 35.6816 53.8076 35.6816V36.6816ZM56.4883 34L57.4883 33.9999C57.488 31.9674 55.8405 30.3193 53.8076 30.3193V31.3193V32.3193C54.7356 32.3193 55.4882 33.0718 55.4883 34.0001L56.4883 34ZM53.8076 31.3193V30.3193H36.6807V31.3193V32.3193H53.8076V31.3193ZM36.6807 31.3193H37.6807V14.1924H36.6807H35.6807V31.3193H36.6807ZM36.6807 14.1924H37.6807C37.6807 12.1596 36.0328 10.5117 34 10.5117V11.5117V12.5117C34.9282 12.5117 35.6807 13.2641 35.6807 14.1924H36.6807Z" fill="#D9D9D9" mask="url(#path-2-inside-1_1223_1713)"/>
</svg>
