<svg width="475" height="469" viewBox="0 0 475 469" fill="none" xmlns="http://www.w3.org/2000/svg">
<path d="M329.667 252.635C331.555 245.596 341.826 237.417 367.805 261.015" stroke="white" stroke-width="2"/>
<path d="M348.736 293.1C361.386 292.262 384.042 286.396 373.469 269.636" stroke="white" stroke-width="2"/>
<path d="M268.038 233.531C270.583 230.764 277.728 225.349 285.944 225.817" stroke="white" stroke-width="2"/>
<path d="M270.803 239.959C273.392 237.816 279.756 233.764 284.496 234.699" stroke="white" stroke-width="2"/>
<path d="M301.481 229.323C306.967 228.933 321.047 230.398 333.476 239.375" stroke="white" stroke-width="2"/>
<path d="M263.824 253.868C273.831 245.92 299.506 234.489 322.153 252.348C311.663 248.296 287.05 244.284 272.514 260.647" stroke="white" stroke-width="2"/>
<path d="M275.31 332.347C276.583 337.842 277.651 349.939 271.749 354.366" stroke="white" stroke-width="2"/>
<path d="M295.154 333.589C296.257 340.515 297.8 355.111 295.154 358.092" stroke="white" stroke-width="2"/>
<path d="M312.327 333.137C314.447 339.95 318.051 354.569 315.507 358.544" stroke="white" stroke-width="2"/>
<path d="M238.219 332.177C245.323 344.995 258.466 373.717 254.203 386.056" stroke="white" stroke-width="2"/>
<path d="M232.659 330.531C236.056 332.108 244.288 335.015 250.033 334.028" stroke="white" stroke-width="2"/>
<path d="M289.415 357.677C290.574 366.177 292.006 385.4 285.709 393.665C278.312 403.373 259.328 412.624 240.072 390.169C233.393 382.38 223.531 362.9 233.353 331.149" stroke="white" stroke-width="2"/>
<path d="M251.374 325.894C249.654 334.502 252.996 352.75 280.127 356.882C288.114 358.388 308.585 360.497 326.574 356.882" stroke="white" stroke-width="2"/>
<path d="M193.908 350.365C195.892 327.038 200.081 280.647 200.974 281.704C201.866 282.76 196.635 327.918 193.908 350.365Z" fill="white" fill-opacity="0.6"/>
<path d="M176.431 211.722C161.556 238.9 144.227 304.679 193.908 350.365M193.908 350.365C195.892 327.038 200.081 280.647 200.974 281.704C201.866 282.76 196.635 327.918 193.908 350.365ZM193.908 350.365C192.917 363.569 192.941 390.902 200.974 394.599M215.477 310.753C210.419 302.302 227.252 307.232 236.301 310.753C242.548 300.718 247.333 300.85 248.944 302.17C278.694 268.367 349.239 290.16 349.72 294.578C353.599 330.195 339.804 335.07 331.499 332.54C333.878 350.497 328.772 356.307 325.921 356.967C333.953 370.964 329.267 389.208 325.921 396.58C292.825 452.368 258.985 445.765 256.754 445.765C236.822 441.012 219.173 430.688 211.758 426.289C197.252 417.683 197.999 401.862 200.974 394.599L204.692 377.434M219.093 383.007C222.721 396.572 239.211 422.063 276.15 415.505C289.342 412.881 313.727 399.868 306.603 359.334" stroke="white" stroke-width="2"/>
<path d="M248.635 322.224C250.143 327.196 267.61 335.569 321.351 332.695C327.696 332.356 332.662 331.318 332.016 332.695" stroke="white" stroke-width="2"/>
<path d="M175.466 203.896C177.411 218.914 183.458 250.139 192.091 254.903" stroke="white" stroke-width="2"/>
<path d="M211.05 282.866C205.8 283.47 194.25 282.4 190.05 273.286C187.133 265.346 187.541 248.482 212.508 244.546C231.078 205.968 283.793 147.867 346.094 224.092" stroke="white" stroke-width="2"/>
<path d="M352.031 180.553L351.098 180.931C354.116 188.595 359.806 211.776 358.034 242.476L359.034 242.516L360.033 242.557C361.82 211.599 356.096 188.128 352.964 180.174L352.031 180.553Z" fill="white"/>
<path d="M345.115 152.602C348.433 147.497 359.846 142.235 378.957 162.027" stroke="white" stroke-width="2"/>
<path d="M347.106 112.842C358.718 113.725 381.279 122.855 378.625 152.308" stroke="white" stroke-width="2"/>
<path d="M150.691 127.862C147.815 136.011 145.913 152.249 161.308 152.013" stroke="white" stroke-width="2"/>
<path d="M203.776 151.13C195.371 145.828 176.039 139.466 165.953 156.431" stroke="white" stroke-width="2"/>
<path d="M170.266 160.26C171.151 163.303 175.375 167.564 185.196 160.26" stroke="white" stroke-width="2"/>
<path d="M365.022 171.157C368.118 171.746 374.312 171.923 374.312 167.917" stroke="white" stroke-width="2"/>
<path d="M174.911 164.972C173.142 170.273 170.664 182.408 174.911 188.534" stroke="white" stroke-width="2"/>
<path d="M367.013 172.924C366.791 193.947 364.956 237.284 359.382 242.447C372.874 249.585 395.736 269.269 373.586 284.486" stroke="white" stroke-width="2"/>
<path d="M170.598 123.739C174.8 117.26 186.59 106.245 200.126 114.02" stroke="white" stroke-width="2"/>
<path d="M147.621 114.871C146.374 117.205 144.026 122.032 144.612 122.667C132.468 120.67 106.326 116.806 98.9098 117.325" stroke="white" stroke-width="2"/>
<path d="M83.0719 118.437C87.6551 117.575 95.8899 116.927 100.839 117.265C104.344 117.504 113.062 117.346 119.144 115.278C125.291 113.076 140.076 109.994 150.04 115.278" stroke="white" stroke-width="2"/>
<path d="M324.854 50.546C327.063 52.1032 332.782 55.0072 337.98 54.1664" stroke="white" stroke-width="2"/>
<path d="M318.308 63.0273C322.294 65.6808 331.668 70.8261 337.282 70.18" stroke="white" stroke-width="2"/>
<path d="M193.593 54.8539C195.889 55.5461 201.807 56.1229 207.109 52.8926" stroke="white" stroke-width="2"/>
<path d="M193.723 70.5435C197.838 70.8127 206.771 70.4743 209.578 66.9672" stroke="white" stroke-width="2"/>
<path d="M178.601 101.661C203.693 83.9236 273.859 58.0193 353.783 96.2983" stroke="white" stroke-width="2"/>
<path d="M302.034 79.2372C312.773 71.7511 332.103 51.7701 323.512 31.7352C337.587 35.6129 359.987 52.4487 336.98 88.77C340.135 86.6157 349.758 82.9534 363.008 85.5385C373.201 86.9927 397.504 87.322 414.281 84.4302C426.932 82.2496 449.022 78.9085 451.284 81.0145C453.191 83.784 451.732 85.5965 447.368 89.5994C441.412 95.0624 426.348 106.931 412.515 114.945" stroke="white" stroke-width="2"/>
<path d="M370.471 112.683C369.925 110.474 368.753 105.899 369.982 104.744C371.863 102.176 378.661 101.212 385.966 101.212C397.682 100.827 409.458 99.8538 421.252 95.7176" stroke="white" stroke-width="2"/>
<path d="M370.107 110.421C372.264 108.35 378.6 103.662 386.689 101.469" stroke="white" stroke-width="2"/>
<path d="M230.158 80.3114C223.484 75.2648 211.991 57.0094 219.406 24.3603C202.845 32.753 176.509 57.2727 203.649 88.2103" stroke="white" stroke-width="2"/>
<path d="M192.523 93.4761C189.186 89.1975 163.158 84.6556 85.7435 100.717C79.5644 102.256 60.8637 103.886 35.4933 98.0953C27.3385 96.0844 13.1241 98.0952 31.4121 112.243C37.9855 117.329 101.275 156.168 125.196 156.811" stroke="white" stroke-width="2"/>
<path d="M221.867 249.643C227.699 249.056 233.098 249.844 237.101 251.542C241.138 253.255 243.537 255.782 243.893 258.571C244.25 261.361 242.549 264.301 239.046 266.773C235.573 269.223 230.51 271.064 224.679 271.651C218.847 272.238 213.449 271.45 209.447 269.752C205.408 268.039 203.01 265.512 202.654 262.722C202.297 259.933 203.998 256.994 207.501 254.521C210.974 252.071 216.036 250.23 221.867 249.643Z" stroke="white" stroke-width="2"/>
<path d="M357.618 258.022C362.787 258.993 367.163 260.927 370.066 263.223C373.015 265.556 374.22 268.057 373.712 270.189C373.204 272.321 370.961 274.175 367.202 275.248C363.5 276.305 358.616 276.501 353.447 275.53C348.279 274.56 343.901 272.625 340.998 270.329C338.05 267.997 336.844 265.495 337.352 263.363C337.86 261.231 340.103 259.377 343.863 258.304C347.565 257.248 352.45 257.052 357.618 258.022Z" stroke="white" stroke-width="2"/>
<g filter="url(#filter0_f_1785_3965)">
<g filter="url(#filter1_f_1785_3965)">
<path d="M329.667 252.91C331.555 245.871 341.826 237.692 367.805 261.29" stroke="#C75252" stroke-opacity="0.7" stroke-width="5"/>
</g>
<g filter="url(#filter2_f_1785_3965)">
<path d="M348.736 293.375C361.386 292.537 384.042 286.671 373.469 269.911" stroke="#C75252" stroke-opacity="0.7" stroke-width="5"/>
</g>
<g filter="url(#filter3_f_1785_3965)">
<path d="M268.037 233.806C270.583 231.04 277.728 225.624 285.944 226.092" stroke="#C75252" stroke-opacity="0.7" stroke-width="5"/>
</g>
<g filter="url(#filter4_f_1785_3965)">
<path d="M270.802 240.234C273.392 238.091 279.756 234.039 284.496 234.974" stroke="#C75252" stroke-opacity="0.7" stroke-width="5"/>
</g>
<g filter="url(#filter5_f_1785_3965)">
<path d="M301.481 229.598C306.967 229.208 321.047 230.673 333.476 239.65" stroke="#C75252" stroke-opacity="0.7" stroke-width="5"/>
</g>
<g filter="url(#filter6_f_1785_3965)">
<path d="M263.824 254.143C273.831 246.195 299.506 234.764 322.153 252.624C311.663 248.572 287.05 244.559 272.514 260.922" stroke="#C75252" stroke-opacity="0.7" stroke-width="5"/>
</g>
<g filter="url(#filter7_f_1785_3965)">
<path d="M275.31 332.622C276.582 338.117 277.651 350.215 271.749 354.641" stroke="#C75252" stroke-opacity="0.7" stroke-width="5"/>
</g>
<g filter="url(#filter8_f_1785_3965)">
<path d="M295.154 333.864C296.257 340.79 297.8 355.387 295.154 358.368" stroke="#C75252" stroke-opacity="0.7" stroke-width="5"/>
</g>
<g filter="url(#filter9_f_1785_3965)">
<path d="M312.327 333.412C314.447 340.225 318.051 354.844 315.507 358.819" stroke="#C75252" stroke-opacity="0.7" stroke-width="5"/>
</g>
<g filter="url(#filter10_f_1785_3965)">
<path d="M238.219 332.452C245.323 345.271 258.466 373.992 254.203 386.331" stroke="#C75252" stroke-opacity="0.7" stroke-width="5"/>
</g>
<g filter="url(#filter11_f_1785_3965)">
<path d="M232.658 330.806C236.056 332.383 244.288 335.29 250.033 334.303" stroke="#C75252" stroke-opacity="0.7" stroke-width="5"/>
</g>
<g filter="url(#filter12_f_1785_3965)">
<path d="M289.415 357.952C290.574 366.452 292.006 385.675 285.709 393.94C278.312 403.648 259.328 412.899 240.071 390.444C233.392 382.655 223.531 363.175 233.353 331.424" stroke="#C75252" stroke-opacity="0.7" stroke-width="5"/>
</g>
<g filter="url(#filter13_f_1785_3965)">
<path d="M251.374 326.17C249.653 334.777 252.996 353.026 280.127 357.157C288.114 358.664 308.585 360.773 326.574 357.157" stroke="#C75252" stroke-opacity="0.7" stroke-width="5"/>
</g>
<g filter="url(#filter14_f_1785_3965)">
<path d="M193.908 350.641C195.892 327.313 200.081 280.923 200.974 281.979C201.866 283.035 196.635 328.193 193.908 350.641Z" fill="#FFB4B4" fill-opacity="0.6"/>
<path d="M176.431 211.997C161.556 239.175 144.227 304.954 193.908 350.641M193.908 350.641C195.892 327.313 200.081 280.923 200.974 281.979C201.866 283.035 196.635 328.193 193.908 350.641ZM193.908 350.641C192.917 363.845 192.942 391.177 200.974 394.874M215.477 311.028C210.419 302.577 227.252 307.507 236.301 311.028C242.548 300.993 247.333 301.125 248.945 302.445C278.694 268.643 349.239 290.435 349.72 294.853C353.599 330.47 339.804 335.346 331.499 332.815C333.879 350.773 328.772 356.582 325.921 357.243C333.953 371.239 329.267 389.483 325.921 396.855C292.825 452.643 258.985 446.041 256.754 446.041C236.822 441.287 219.173 430.964 211.758 426.564C197.252 417.958 197.999 402.137 200.974 394.874L204.693 377.709M219.093 383.283C222.721 396.848 239.211 422.338 276.15 415.78C289.343 413.157 313.727 400.143 306.603 359.609" stroke="#C75252" stroke-opacity="0.7" stroke-width="5"/>
</g>
<g filter="url(#filter15_f_1785_3965)">
<path d="M248.634 322.499C250.143 327.472 267.609 335.844 321.351 332.97C327.696 332.631 332.662 331.593 332.016 332.97" stroke="#C75252" stroke-opacity="0.7" stroke-width="5"/>
</g>
<g filter="url(#filter16_f_1785_3965)">
<path d="M175.466 204.172C177.41 219.189 183.458 250.414 192.091 255.178" stroke="#C75252" stroke-opacity="0.7" stroke-width="5"/>
</g>
<g filter="url(#filter17_f_1785_3965)">
<path d="M211.05 283.141C205.8 283.745 194.25 282.675 190.049 273.561C187.133 265.621 187.541 248.757 212.508 244.822C231.078 206.243 283.793 148.142 346.094 224.367" stroke="#C75252" stroke-opacity="0.7" stroke-width="5"/>
</g>
<g filter="url(#filter18_f_1785_3965)">
<path d="M352.031 180.828L349.699 181.775C352.631 189.221 358.295 212.185 356.535 242.69L359.034 242.791L361.533 242.893C363.33 211.741 357.581 188.054 354.363 179.881L352.031 180.828Z" fill="#C75252" fill-opacity="0.7"/>
</g>
<g filter="url(#filter19_f_1785_3965)">
<path d="M345.115 152.877C348.433 147.772 359.846 142.51 378.957 162.302" stroke="#C75252" stroke-opacity="0.7" stroke-width="5"/>
</g>
<g filter="url(#filter20_f_1785_3965)">
<path d="M347.106 113.117C358.718 114 381.279 123.131 378.625 152.583" stroke="#C75252" stroke-opacity="0.7" stroke-width="5"/>
</g>
<g filter="url(#filter21_f_1785_3965)">
<path d="M150.691 128.137C147.815 136.286 145.913 152.524 161.308 152.288" stroke="#C75252" stroke-opacity="0.7" stroke-width="5"/>
</g>
<g filter="url(#filter22_f_1785_3965)">
<path d="M203.776 151.405C195.371 146.103 176.039 139.742 165.953 156.706" stroke="#C75252" stroke-opacity="0.7" stroke-width="5"/>
</g>
<g filter="url(#filter23_f_1785_3965)">
<path d="M170.266 160.535C171.151 163.578 175.375 167.839 185.196 160.535" stroke="#C75252" stroke-opacity="0.7" stroke-width="5"/>
</g>
<g filter="url(#filter24_f_1785_3965)">
<path d="M365.022 171.432C368.118 172.021 374.312 172.198 374.312 168.193" stroke="#C75252" stroke-opacity="0.7" stroke-width="5"/>
</g>
<g filter="url(#filter25_f_1785_3965)">
<path d="M174.911 165.247C173.142 170.549 170.664 182.683 174.911 188.809" stroke="#C75252" stroke-opacity="0.7" stroke-width="5"/>
</g>
<g filter="url(#filter26_f_1785_3965)">
<path d="M367.012 173.199C366.791 194.222 364.955 237.559 359.381 242.722C372.874 249.86 395.736 269.544 373.585 284.762" stroke="#C75252" stroke-opacity="0.7" stroke-width="5"/>
</g>
<g filter="url(#filter27_f_1785_3965)">
<path d="M170.598 124.014C174.8 117.535 186.589 106.52 200.126 114.295" stroke="#C75252" stroke-opacity="0.7" stroke-width="5"/>
</g>
<g filter="url(#filter28_f_1785_3965)">
<path d="M147.621 115.146C146.374 117.48 144.026 122.307 144.612 122.942C132.468 120.945 106.326 117.081 98.9097 117.6" stroke="#C75252" stroke-opacity="0.7" stroke-width="5"/>
</g>
<g filter="url(#filter29_f_1785_3965)">
<path d="M83.0718 118.712C87.655 117.85 95.8898 117.202 100.839 117.54C104.344 117.779 113.062 117.62 119.144 115.553C125.291 113.351 140.076 110.268 150.04 115.553" stroke="#C75252" stroke-opacity="0.7" stroke-width="5"/>
</g>
<g filter="url(#filter30_f_1785_3965)">
<path d="M324.854 50.8212C327.063 52.3783 332.781 55.2824 337.98 54.4416" stroke="#C75252" stroke-opacity="0.7" stroke-width="5"/>
</g>
<g filter="url(#filter31_f_1785_3965)">
<path d="M318.308 63.3023C322.293 65.9557 331.668 71.101 337.282 70.455" stroke="#C75252" stroke-opacity="0.7" stroke-width="5"/>
</g>
<g filter="url(#filter32_f_1785_3965)">
<path d="M193.593 55.129C195.889 55.8212 201.806 56.3981 207.109 53.1678" stroke="#C75252" stroke-opacity="0.7" stroke-width="5"/>
</g>
<g filter="url(#filter33_f_1785_3965)">
<path d="M193.723 70.8187C197.838 71.0879 206.771 70.7495 209.578 67.2423" stroke="#C75252" stroke-opacity="0.7" stroke-width="5"/>
</g>
<g filter="url(#filter34_f_1785_3965)">
<path d="M178.601 101.936C203.693 84.1988 273.859 58.2945 353.783 96.5735" stroke="#C75252" stroke-opacity="0.7" stroke-width="5"/>
</g>
<g filter="url(#filter35_f_1785_3965)">
<path d="M302.034 79.5124C312.773 72.0263 332.102 52.0452 323.511 32.0104C337.587 35.8881 359.987 52.7239 336.98 89.0451C340.135 86.8909 349.758 83.2286 363.008 85.8137C373.201 87.2679 397.504 87.5972 414.281 84.7053C426.932 82.5248 449.022 79.1836 451.284 81.2897C453.191 84.0592 451.732 85.8716 447.368 89.8746C441.412 95.3376 426.348 107.206 412.515 115.22" stroke="#C75252" stroke-opacity="0.7" stroke-width="5"/>
</g>
<g filter="url(#filter36_f_1785_3965)">
<path d="M370.471 112.958C369.924 110.75 368.753 106.174 369.982 105.019C371.863 102.451 378.661 101.488 385.966 101.488C397.682 101.102 409.457 100.129 421.252 95.9927" stroke="#C75252" stroke-opacity="0.7" stroke-width="5"/>
</g>
<g filter="url(#filter37_f_1785_3965)">
<path d="M370.106 110.696C372.264 108.625 378.6 103.937 386.689 101.745" stroke="#C75252" stroke-opacity="0.7" stroke-width="5"/>
</g>
<g filter="url(#filter38_f_1785_3965)">
<path d="M230.158 80.5865C223.484 75.54 211.991 57.2845 219.406 24.6355C202.845 33.0281 176.509 57.5479 203.649 88.4855" stroke="#C75252" stroke-opacity="0.7" stroke-width="5"/>
</g>
<g filter="url(#filter39_f_1785_3965)">
<path d="M192.525 93.7517C189.188 89.4731 163.16 84.9312 85.7453 100.992C79.5663 102.532 60.8656 104.162 35.4951 98.3708C27.3403 96.36 13.1259 98.3708 31.4139 112.519C37.9873 117.604 101.277 156.444 125.198 157.087" stroke="#C75252" stroke-opacity="0.7" stroke-width="5"/>
</g>
<g filter="url(#filter40_f_1785_3965)">
<ellipse cx="21.724" cy="12.0931" rx="21.724" ry="12.0931" transform="matrix(0.994973 -0.100148 0.126703 0.991941 200.126 251.102)" fill="#FFB4B4" fill-opacity="0.6"/>
<path d="M222.057 251.406C227.684 250.84 232.818 251.611 236.541 253.19C240.352 254.807 242.144 256.991 242.401 258.996C242.657 261.002 241.461 263.487 238.154 265.821C234.924 268.1 230.115 269.872 224.488 270.438C218.862 271.004 213.729 270.233 210.006 268.654C206.194 267.037 204.402 264.852 204.146 262.847C203.89 260.841 205.086 258.357 208.393 256.023C211.623 253.744 216.431 251.973 222.057 251.406Z" stroke="#C75252" stroke-opacity="0.7" stroke-width="5"/>
</g>
<g filter="url(#filter41_f_1785_3965)">
<ellipse cx="19.4976" cy="9.99919" rx="19.4976" ry="9.99919" transform="matrix(0.982831 0.184507 -0.231749 0.972776 338.687 253.727)" fill="#FFB4B4" fill-opacity="0.6"/>
<path d="M357.271 259.757C362.255 260.692 366.399 262.547 369.084 264.671C371.883 266.885 372.548 268.887 372.238 270.188C371.928 271.489 370.407 273.08 366.838 274.099C363.415 275.075 358.779 275.282 353.795 274.346C348.811 273.411 344.665 271.556 341.98 269.432C339.182 267.218 338.517 265.216 338.827 263.915C339.137 262.614 340.657 261.023 344.226 260.004C347.65 259.027 352.287 258.821 357.271 259.757Z" stroke="#C75252" stroke-opacity="0.7" stroke-width="5"/>
</g>
</g>
<defs>
<filter id="filter0_f_1785_3965" x="0" y="0" width="474.605" height="468.782" filterUnits="userSpaceOnUse" color-interpolation-filters="sRGB">
<feFlood flood-opacity="0" result="BackgroundImageFix"/>
<feBlend mode="normal" in="SourceGraphic" in2="BackgroundImageFix" result="shape"/>
<feGaussianBlur stdDeviation="10" result="effect1_foregroundBlur_1785_3965"/>
</filter>
<filter id="filter1_f_1785_3965" x="319.252" y="235.111" width="58.2336" height="36.0295" filterUnits="userSpaceOnUse" color-interpolation-filters="sRGB">
<feFlood flood-opacity="0" result="BackgroundImageFix"/>
<feBlend mode="normal" in="SourceGraphic" in2="BackgroundImageFix" result="shape"/>
<feGaussianBlur stdDeviation="4" result="effect1_foregroundBlur_1785_3965"/>
</filter>
<filter id="filter2_f_1785_3965" x="340.571" y="260.577" width="46.1312" height="43.2922" filterUnits="userSpaceOnUse" color-interpolation-filters="sRGB">
<feFlood flood-opacity="0" result="BackgroundImageFix"/>
<feBlend mode="normal" in="SourceGraphic" in2="BackgroundImageFix" result="shape"/>
<feGaussianBlur stdDeviation="4" result="effect1_foregroundBlur_1785_3965"/>
</filter>
<filter id="filter3_f_1785_3965" x="258.198" y="215.563" width="35.8884" height="27.9355" filterUnits="userSpaceOnUse" color-interpolation-filters="sRGB">
<feFlood flood-opacity="0" result="BackgroundImageFix"/>
<feBlend mode="normal" in="SourceGraphic" in2="BackgroundImageFix" result="shape"/>
<feGaussianBlur stdDeviation="4" result="effect1_foregroundBlur_1785_3965"/>
</filter>
<filter id="filter4_f_1785_3965" x="261.209" y="224.337" width="31.7711" height="25.8234" filterUnits="userSpaceOnUse" color-interpolation-filters="sRGB">
<feFlood flood-opacity="0" result="BackgroundImageFix"/>
<feBlend mode="normal" in="SourceGraphic" in2="BackgroundImageFix" result="shape"/>
<feGaussianBlur stdDeviation="4" result="effect1_foregroundBlur_1785_3965"/>
</filter>
<filter id="filter5_f_1785_3965" x="293.304" y="219.042" width="49.636" height="30.634" filterUnits="userSpaceOnUse" color-interpolation-filters="sRGB">
<feFlood flood-opacity="0" result="BackgroundImageFix"/>
<feBlend mode="normal" in="SourceGraphic" in2="BackgroundImageFix" result="shape"/>
<feGaussianBlur stdDeviation="4" result="effect1_foregroundBlur_1785_3965"/>
</filter>
<filter id="filter6_f_1785_3965" x="254.269" y="232.65" width="77.4315" height="37.9327" filterUnits="userSpaceOnUse" color-interpolation-filters="sRGB">
<feFlood flood-opacity="0" result="BackgroundImageFix"/>
<feBlend mode="normal" in="SourceGraphic" in2="BackgroundImageFix" result="shape"/>
<feGaussianBlur stdDeviation="4" result="effect1_foregroundBlur_1785_3965"/>
</filter>
<filter id="filter7_f_1785_3965" x="262.249" y="324.058" width="24.5574" height="40.583" filterUnits="userSpaceOnUse" color-interpolation-filters="sRGB">
<feFlood flood-opacity="0" result="BackgroundImageFix"/>
<feBlend mode="normal" in="SourceGraphic" in2="BackgroundImageFix" result="shape"/>
<feGaussianBlur stdDeviation="4" result="effect1_foregroundBlur_1785_3965"/>
</filter>
<filter id="filter8_f_1785_3965" x="284.685" y="325.471" width="22.4298" height="42.5559" filterUnits="userSpaceOnUse" color-interpolation-filters="sRGB">
<feFlood flood-opacity="0" result="BackgroundImageFix"/>
<feBlend mode="normal" in="SourceGraphic" in2="BackgroundImageFix" result="shape"/>
<feGaussianBlur stdDeviation="4" result="effect1_foregroundBlur_1785_3965"/>
</filter>
<filter id="filter9_f_1785_3965" x="301.94" y="324.669" width="24.9423" height="43.4973" filterUnits="userSpaceOnUse" color-interpolation-filters="sRGB">
<feFlood flood-opacity="0" result="BackgroundImageFix"/>
<feBlend mode="normal" in="SourceGraphic" in2="BackgroundImageFix" result="shape"/>
<feGaussianBlur stdDeviation="4" result="effect1_foregroundBlur_1785_3965"/>
</filter>
<filter id="filter10_f_1785_3965" x="228.032" y="323.24" width="37.5037" height="71.9072" filterUnits="userSpaceOnUse" color-interpolation-filters="sRGB">
<feFlood flood-opacity="0" result="BackgroundImageFix"/>
<feBlend mode="normal" in="SourceGraphic" in2="BackgroundImageFix" result="shape"/>
<feGaussianBlur stdDeviation="4" result="effect1_foregroundBlur_1785_3965"/>
</filter>
<filter id="filter11_f_1785_3965" x="223.606" y="320.539" width="34.8503" height="24.4635" filterUnits="userSpaceOnUse" color-interpolation-filters="sRGB">
<feFlood flood-opacity="0" result="BackgroundImageFix"/>
<feBlend mode="normal" in="SourceGraphic" in2="BackgroundImageFix" result="shape"/>
<feGaussianBlur stdDeviation="4" result="effect1_foregroundBlur_1785_3965"/>
</filter>
<filter id="filter12_f_1785_3965" x="218.71" y="322.685" width="82.2168" height="92.1625" filterUnits="userSpaceOnUse" color-interpolation-filters="sRGB">
<feFlood flood-opacity="0" result="BackgroundImageFix"/>
<feBlend mode="normal" in="SourceGraphic" in2="BackgroundImageFix" result="shape"/>
<feGaussianBlur stdDeviation="4" result="effect1_foregroundBlur_1785_3965"/>
</filter>
<filter id="filter13_f_1785_3965" x="240.5" y="317.68" width="94.566" height="51.9736" filterUnits="userSpaceOnUse" color-interpolation-filters="sRGB">
<feFlood flood-opacity="0" result="BackgroundImageFix"/>
<feBlend mode="normal" in="SourceGraphic" in2="BackgroundImageFix" result="shape"/>
<feGaussianBlur stdDeviation="4" result="effect1_foregroundBlur_1785_3965"/>
</filter>
<filter id="filter14_f_1785_3965" x="150.461" y="202.797" width="210.432" height="253.986" filterUnits="userSpaceOnUse" color-interpolation-filters="sRGB">
<feFlood flood-opacity="0" result="BackgroundImageFix"/>
<feBlend mode="normal" in="SourceGraphic" in2="BackgroundImageFix" result="shape"/>
<feGaussianBlur stdDeviation="4" result="effect1_foregroundBlur_1785_3965"/>
</filter>
<filter id="filter15_f_1785_3965" x="238.242" y="313.773" width="104.329" height="30.283" filterUnits="userSpaceOnUse" color-interpolation-filters="sRGB">
<feFlood flood-opacity="0" result="BackgroundImageFix"/>
<feBlend mode="normal" in="SourceGraphic" in2="BackgroundImageFix" result="shape"/>
<feGaussianBlur stdDeviation="4" result="effect1_foregroundBlur_1785_3965"/>
</filter>
<filter id="filter16_f_1785_3965" x="164.987" y="195.85" width="36.3124" height="69.5164" filterUnits="userSpaceOnUse" color-interpolation-filters="sRGB">
<feFlood flood-opacity="0" result="BackgroundImageFix"/>
<feBlend mode="normal" in="SourceGraphic" in2="BackgroundImageFix" result="shape"/>
<feGaussianBlur stdDeviation="4" result="effect1_foregroundBlur_1785_3965"/>
</filter>
<filter id="filter17_f_1785_3965" x="178.317" y="176.589" width="177.713" height="117.19" filterUnits="userSpaceOnUse" color-interpolation-filters="sRGB">
<feFlood flood-opacity="0" result="BackgroundImageFix"/>
<feBlend mode="normal" in="SourceGraphic" in2="BackgroundImageFix" result="shape"/>
<feGaussianBlur stdDeviation="4" result="effect1_foregroundBlur_1785_3965"/>
</filter>
<filter id="filter18_f_1785_3965" x="341.699" y="171.881" width="28.1742" height="79.0121" filterUnits="userSpaceOnUse" color-interpolation-filters="sRGB">
<feFlood flood-opacity="0" result="BackgroundImageFix"/>
<feBlend mode="normal" in="SourceGraphic" in2="BackgroundImageFix" result="shape"/>
<feGaussianBlur stdDeviation="4" result="effect1_foregroundBlur_1785_3965"/>
</filter>
<filter id="filter19_f_1785_3965" x="335.019" y="137.686" width="53.7363" height="34.3525" filterUnits="userSpaceOnUse" color-interpolation-filters="sRGB">
<feFlood flood-opacity="0" result="BackgroundImageFix"/>
<feBlend mode="normal" in="SourceGraphic" in2="BackgroundImageFix" result="shape"/>
<feGaussianBlur stdDeviation="4" result="effect1_foregroundBlur_1785_3965"/>
</filter>
<filter id="filter20_f_1785_3965" x="338.916" y="102.624" width="50.424" height="58.1831" filterUnits="userSpaceOnUse" color-interpolation-filters="sRGB">
<feFlood flood-opacity="0" result="BackgroundImageFix"/>
<feBlend mode="normal" in="SourceGraphic" in2="BackgroundImageFix" result="shape"/>
<feGaussianBlur stdDeviation="4" result="effect1_foregroundBlur_1785_3965"/>
</filter>
<filter id="filter21_f_1785_3965" x="138.225" y="119.305" width="31.121" height="43.4853" filterUnits="userSpaceOnUse" color-interpolation-filters="sRGB">
<feFlood flood-opacity="0" result="BackgroundImageFix"/>
<feBlend mode="normal" in="SourceGraphic" in2="BackgroundImageFix" result="shape"/>
<feGaussianBlur stdDeviation="4" result="effect1_foregroundBlur_1785_3965"/>
</filter>
<filter id="filter22_f_1785_3965" x="155.804" y="135.201" width="57.3058" height="30.7827" filterUnits="userSpaceOnUse" color-interpolation-filters="sRGB">
<feFlood flood-opacity="0" result="BackgroundImageFix"/>
<feBlend mode="normal" in="SourceGraphic" in2="BackgroundImageFix" result="shape"/>
<feGaussianBlur stdDeviation="4" result="effect1_foregroundBlur_1785_3965"/>
</filter>
<filter id="filter23_f_1785_3965" x="159.865" y="150.529" width="34.8228" height="24.5405" filterUnits="userSpaceOnUse" color-interpolation-filters="sRGB">
<feFlood flood-opacity="0" result="BackgroundImageFix"/>
<feBlend mode="normal" in="SourceGraphic" in2="BackgroundImageFix" result="shape"/>
<feGaussianBlur stdDeviation="4" result="effect1_foregroundBlur_1785_3965"/>
</filter>
<filter id="filter24_f_1785_3965" x="356.555" y="160.193" width="28.2571" height="22.0567" filterUnits="userSpaceOnUse" color-interpolation-filters="sRGB">
<feFlood flood-opacity="0" result="BackgroundImageFix"/>
<feBlend mode="normal" in="SourceGraphic" in2="BackgroundImageFix" result="shape"/>
<feGaussianBlur stdDeviation="4" result="effect1_foregroundBlur_1785_3965"/>
</filter>
<filter id="filter25_f_1785_3965" x="162.066" y="156.456" width="23.2166" height="41.7776" filterUnits="userSpaceOnUse" color-interpolation-filters="sRGB">
<feFlood flood-opacity="0" result="BackgroundImageFix"/>
<feBlend mode="normal" in="SourceGraphic" in2="BackgroundImageFix" result="shape"/>
<feGaussianBlur stdDeviation="4" result="effect1_foregroundBlur_1785_3965"/>
</filter>
<filter id="filter26_f_1785_3965" x="347.096" y="165.173" width="46.24" height="129.649" filterUnits="userSpaceOnUse" color-interpolation-filters="sRGB">
<feFlood flood-opacity="0" result="BackgroundImageFix"/>
<feBlend mode="normal" in="SourceGraphic" in2="BackgroundImageFix" result="shape"/>
<feGaussianBlur stdDeviation="4" result="effect1_foregroundBlur_1785_3965"/>
</filter>
<filter id="filter27_f_1785_3965" x="160.5" y="101.121" width="48.8711" height="32.254" filterUnits="userSpaceOnUse" color-interpolation-filters="sRGB">
<feFlood flood-opacity="0" result="BackgroundImageFix"/>
<feBlend mode="normal" in="SourceGraphic" in2="BackgroundImageFix" result="shape"/>
<feGaussianBlur stdDeviation="4" result="effect1_foregroundBlur_1785_3965"/>
</filter>
<filter id="filter28_f_1785_3965" x="90.7349" y="105.968" width="68.6368" height="28.6197" filterUnits="userSpaceOnUse" color-interpolation-filters="sRGB">
<feFlood flood-opacity="0" result="BackgroundImageFix"/>
<feBlend mode="normal" in="SourceGraphic" in2="BackgroundImageFix" result="shape"/>
<feGaussianBlur stdDeviation="4" result="effect1_foregroundBlur_1785_3965"/>
</filter>
<filter id="filter29_f_1785_3965" x="74.6099" y="102.135" width="84.6017" height="27.0337" filterUnits="userSpaceOnUse" color-interpolation-filters="sRGB">
<feFlood flood-opacity="0" result="BackgroundImageFix"/>
<feBlend mode="normal" in="SourceGraphic" in2="BackgroundImageFix" result="shape"/>
<feGaussianBlur stdDeviation="4" result="effect1_foregroundBlur_1785_3965"/>
</filter>
<filter id="filter30_f_1785_3965" x="315.414" y="40.7777" width="30.9655" height="24.3136" filterUnits="userSpaceOnUse" color-interpolation-filters="sRGB">
<feFlood flood-opacity="0" result="BackgroundImageFix"/>
<feBlend mode="normal" in="SourceGraphic" in2="BackgroundImageFix" result="shape"/>
<feGaussianBlur stdDeviation="4" result="effect1_foregroundBlur_1785_3965"/>
</filter>
<filter id="filter31_f_1785_3965" x="308.922" y="53.2213" width="36.6456" height="27.7887" filterUnits="userSpaceOnUse" color-interpolation-filters="sRGB">
<feFlood flood-opacity="0" result="BackgroundImageFix"/>
<feBlend mode="normal" in="SourceGraphic" in2="BackgroundImageFix" result="shape"/>
<feGaussianBlur stdDeviation="4" result="effect1_foregroundBlur_1785_3965"/>
</filter>
<filter id="filter32_f_1785_3965" x="184.871" y="43.0328" width="31.5382" height="23.1346" filterUnits="userSpaceOnUse" color-interpolation-filters="sRGB">
<feFlood flood-opacity="0" result="BackgroundImageFix"/>
<feBlend mode="normal" in="SourceGraphic" in2="BackgroundImageFix" result="shape"/>
<feGaussianBlur stdDeviation="4" result="effect1_foregroundBlur_1785_3965"/>
</filter>
<filter id="filter33_f_1785_3965" x="185.56" y="57.6801" width="33.9702" height="23.7107" filterUnits="userSpaceOnUse" color-interpolation-filters="sRGB">
<feFlood flood-opacity="0" result="BackgroundImageFix"/>
<feBlend mode="normal" in="SourceGraphic" in2="BackgroundImageFix" result="shape"/>
<feGaussianBlur stdDeviation="4" result="effect1_foregroundBlur_1785_3965"/>
</filter>
<filter id="filter34_f_1785_3965" x="169.158" y="66.2681" width="193.705" height="45.7092" filterUnits="userSpaceOnUse" color-interpolation-filters="sRGB">
<feFlood flood-opacity="0" result="BackgroundImageFix"/>
<feBlend mode="normal" in="SourceGraphic" in2="BackgroundImageFix" result="shape"/>
<feGaussianBlur stdDeviation="4" result="effect1_foregroundBlur_1785_3965"/>
</filter>
<filter id="filter35_f_1785_3965" x="292.604" y="20.2201" width="170.001" height="105.163" filterUnits="userSpaceOnUse" color-interpolation-filters="sRGB">
<feFlood flood-opacity="0" result="BackgroundImageFix"/>
<feBlend mode="normal" in="SourceGraphic" in2="BackgroundImageFix" result="shape"/>
<feGaussianBlur stdDeviation="4" result="effect1_foregroundBlur_1785_3965"/>
</filter>
<filter id="filter36_f_1785_3965" x="358.941" y="85.6336" width="71.1385" height="35.9243" filterUnits="userSpaceOnUse" color-interpolation-filters="sRGB">
<feFlood flood-opacity="0" result="BackgroundImageFix"/>
<feBlend mode="normal" in="SourceGraphic" in2="BackgroundImageFix" result="shape"/>
<feGaussianBlur stdDeviation="4" result="effect1_foregroundBlur_1785_3965"/>
</filter>
<filter id="filter37_f_1785_3965" x="360.375" y="91.3316" width="34.9677" height="29.1679" filterUnits="userSpaceOnUse" color-interpolation-filters="sRGB">
<feFlood flood-opacity="0" result="BackgroundImageFix"/>
<feBlend mode="normal" in="SourceGraphic" in2="BackgroundImageFix" result="shape"/>
<feGaussianBlur stdDeviation="4" result="effect1_foregroundBlur_1785_3965"/>
</filter>
<filter id="filter38_f_1785_3965" x="181.441" y="12" width="58.2246" height="86.1342" filterUnits="userSpaceOnUse" color-interpolation-filters="sRGB">
<feFlood flood-opacity="0" result="BackgroundImageFix"/>
<feBlend mode="normal" in="SourceGraphic" in2="BackgroundImageFix" result="shape"/>
<feGaussianBlur stdDeviation="4" result="effect1_foregroundBlur_1785_3965"/>
</filter>
<filter id="filter39_f_1785_3965" x="12" y="79.2103" width="190.496" height="88.3759" filterUnits="userSpaceOnUse" color-interpolation-filters="sRGB">
<feFlood flood-opacity="0" result="BackgroundImageFix"/>
<feBlend mode="normal" in="SourceGraphic" in2="BackgroundImageFix" result="shape"/>
<feGaussianBlur stdDeviation="4" result="effect1_foregroundBlur_1785_3965"/>
</filter>
<filter id="filter40_f_1785_3965" x="193.603" y="240.729" width="59.34" height="40.387" filterUnits="userSpaceOnUse" color-interpolation-filters="sRGB">
<feFlood flood-opacity="0" result="BackgroundImageFix"/>
<feBlend mode="normal" in="SourceGraphic" in2="BackgroundImageFix" result="shape"/>
<feGaussianBlur stdDeviation="4" result="effect1_foregroundBlur_1785_3965"/>
</filter>
<filter id="filter41_f_1785_3965" x="328.228" y="248.678" width="54.6088" height="36.7474" filterUnits="userSpaceOnUse" color-interpolation-filters="sRGB">
<feFlood flood-opacity="0" result="BackgroundImageFix"/>
<feBlend mode="normal" in="SourceGraphic" in2="BackgroundImageFix" result="shape"/>
<feGaussianBlur stdDeviation="4" result="effect1_foregroundBlur_1785_3965"/>
</filter>
</defs>
</svg>
